<svg width="794" height="677" viewBox="0 0 794 677" fill="none" xmlns="http://www.w3.org/2000/svg">
<path d="M51.1455 416H77.25L74.7873 613L44 603L51.1455 416Z" fill="#FFB200"/>
<path d="M75 416.5L100 418.595V537.5H75V416.5Z" fill="#EB5B00"/>
<path d="M75 537.5H100.375L124 604.5L100.375 615L75 537.5Z" fill="#EB5B00"/>
<path d="M124 604.5L158 620L137 629.5L100.5 614.5L124 604.5Z" fill="#EB5B00"/>
<path d="M136 629.5L158 620L169 660.5L141.5 676L136 629.5Z" fill="#EB5B00"/>
<path d="M12 593.5L137 629.5L142 676.5L0 621.5L12 593.5Z" fill="#FFB200"/>
<path d="M101 614.5L118.5 621.5L137 629.5H136.5L117 624L95 618L101 614.5Z" fill="#FFB200"/>
<path d="M209 97L225 103.959V316.531V516.449L209 531V97Z" fill="#EB5B00"/>
<path d="M209 92H225V128.204L209 145V92Z" fill="#EB5B00"/>
<path d="M101 615L75 537.5L73 611.5L95 618L101 615Z" fill="#FFB200"/>
<path d="M15 388L117 397.318V429L15 414.5V388Z" fill="#FFB200"/>
<path d="M15.5 387.5L346 359L441 364.5L117.5 400L15.5 387.5Z" fill="#FFB200"/>
<path d="M380 392L569 404V464.5L517 427L380 418V392Z" fill="#EB5B00"/>
<path d="M569 0H592V591L569 584V293V0Z" fill="#FFB200"/>
<path d="M592 248L608.5 253.5V421.5V579.5L592 591V248Z" fill="#EB5B00"/>
<path d="M592 0H611V48.5L592 71V0Z" fill="#EB5B00"/>
<path d="M436 392.5L569 400.5V408L404.5 396.5L436 392.5Z" fill="#FFB200"/>
<path d="M543 155H569V213L543 173.5V155Z" fill="#FFB200"/>
<path d="M543 175H569V213L543 175Z" fill="#EB5B00"/>
<path d="M91.5 183L794 134V163L91.5 205V183Z" fill="#FFB200"/>
<ellipse cx="622" cy="156.5" rx="53" ry="125.5" fill="#EB5B00"/>
<ellipse cx="642" cy="155" rx="46" ry="113" fill="#FFB200"/>
<ellipse cx="652.5" cy="157" rx="43.5" ry="91" fill="#EB5B00"/>
<ellipse cx="664" cy="156.5" rx="32" ry="85.5" fill="#FFB200"/>
<ellipse cx="175.5" cy="194" rx="58.5" ry="87" fill="#EB5B00"/>
<path d="M186 92H209V531L186 525.8V309.643V92Z" fill="#FFB200"/>
<path d="M168 199H225V237L168 211.121V199Z" fill="#FFB200"/>
<path d="M166.5 205H225.5V237L166.5 211.486V205Z" fill="#EB5B00"/>
<path d="M687.5 155C687.5 162.732 692.194 169 687.5 169C682.806 169 679 162.732 679 155C679 147.268 682.806 141 687.5 141C692.194 141 687.5 147.268 687.5 155Z" fill="#EB5B00"/>
<path d="M209 174L235 173V196H209V174Z" fill="#FFB200"/>
<path d="M117 400.111L441 364V392.889L117 429V400.111Z" fill="#EB5B00"/>
</svg>
